<?xml version="1.0" encoding="UTF-8"?>
<svg xmlns="http://www.w3.org/2000/svg" xmlns:xlink="http://www.w3.org/1999/xlink" width="32px" height="32px" viewBox="0 0 32 32" version="1.1">
<g id="surface1">
<path style=" stroke:none;fill-rule:nonzero;fill:rgb(0%,0%,0%);fill-opacity:1;" d="M 7 9 C 7 9.5 7.699219 10 8.601562 10 C 10 10 10.101562 10.699219 9.601562 14.199219 C 8.800781 19.300781 6.601562 22 4.800781 20.199219 C 4 19.398438 4 18.699219 5 17.5 C 6.601562 15.601562 5.898438 14.699219 3.601562 15.601562 C -1.601562 17.601562 -0.101562 24 5.5 24 C 9.101562 24 12 21.199219 12 17.800781 C 12 16.699219 12.699219 16 13.898438 16 C 14.898438 16 16 15.300781 16.398438 14.5 C 16.800781 13.5 16.300781 13 15 13 C 13.898438 13 13 12.300781 13 11.5 C 13 10 15.101562 9.601562 21.601562 10 C 23.398438 10.101562 25.101562 9.699219 25.5 9.101562 C 25.898438 8.300781 23.101562 8 16.601562 8 C 10.898438 8 7 8.398438 7 9 Z M 7 9 "/>
<path style=" stroke:none;fill-rule:nonzero;fill:rgb(0%,0%,0%);fill-opacity:1;" d="M 18.699219 11.699219 C 17.5 12.898438 18 14.199219 19.398438 13.699219 C 21.398438 12.898438 22.101562 14 20.898438 16.101562 C 20.199219 17.398438 20.300781 18.699219 21.101562 20.199219 C 22.699219 23.199219 23.898438 24 27.199219 24 C 32.101562 24 33.199219 18.199219 28.800781 15.898438 C 26.300781 14.601562 25.300781 15.5 27 17.5 C 28.898438 19.800781 26.699219 21.898438 24.398438 19.898438 C 23.199219 19 22.898438 17.601562 23.300781 14.800781 C 23.800781 11.398438 23.601562 11 21.601562 11 C 20.300781 11 19 11.300781 18.699219 11.699219 Z M 18.699219 11.699219 "/>
<path style=" stroke:none;fill-rule:nonzero;fill:rgb(0%,0%,0%);fill-opacity:1;" d="M 16.601562 17.601562 C 15.898438 20.300781 16.5 21.898438 17.601562 20.699219 C 18.601562 19.699219 18.898438 15 18 15 C 17.601562 15 16.898438 16.199219 16.601562 17.601562 Z M 16.601562 17.601562 "/>
</g>
</svg>
